{"title":"Trauma [2004] DVDRip","uid":4740880,"size":734064687,"categoryP":"video","categoryS":"movies","magnet":"?xt=urn:btih:3ad981ffdda466f2f34ea907c7606720ecbfe110&amp;dn=Trauma+%5B2004%5D+DVDRip&amp;tr=udp%3A%2F%2Ftracker.openbittorrent.com%3A80&amp;tr=udp%3A%2F%2Fopen.demonii.com%3A1337&amp;tr=udp%3A%2F%2Ftracker.coppersurfer.tk%3A6969&amp;tr=udp%3A%2F%2Fexodus.desync.com%3A6969","seeders":1,"leechers":1,"uploader":"akhiugo","files":-1,"time":1235554083,"description":"Awaking from a coma to discover his wife has been killed in a car accident, Ben's world may as well have come to an end. A few weeks later, Ben's out of hospital and, attempting to start a new life, he moves home and is befriended by a beautiful young neighbor Charlotte. His life may be turning around but all is not what it seems and, haunted by visions of his dead wife, Ben starts to lose his grip on reality...\n\n\n\nGeneral\nComplete name                    : Trauma [2004].avi\nFormat                           : AVI\nFormat/Info                      : Audio Video Interleave\nFile size                        : 700 MiB\nDuration                         : 1h 29mn\nOverall bit rate                 : 1 088 Kbps\nWriting application              : Nandub v1.0rc2\nWriting library                  : Nandub build 1852/release\n\nVideo\nFormat                           : MPEG-4 Visual\nFormat profile                   : Simple@L3\nFormat settings, BVOP            : No\nFormat settings, QPel            : No\nFormat settings, GMC             : No warppoints\nFormat settings, Matrix          : Default\nCodec ID                         : XVID\nCodec ID/Hint                    : XviD\nDuration                         : 1h 29mn\nBit rate                         : 941 Kbps\nWidth                            : 576 pixels\nHeight                           : 304 pixels\nDisplay aspect ratio             : 1.895\nFrame rate                       : 25.000 fps\nResolution                       : 24 bits\nColorimetry                      : 4:2:0\nScan type                        : Progressive\nBits/(Pixel*Frame)               : 0.215\nStream size                      : 606 MiB (86%)\nWriting library                  : XviD 0.0.09 (UTC 2003-03-25)\n\nAudio\nFormat                           : MPEG Audio\nFormat version                   : Version 1\nFormat profile                   : Layer 3\nCodec ID                         : 55\nCodec ID/Hint                    : MP3\nDuration                         : 1h 29mn\nBit rate mode                    : Variable\nBit rate                         : 134 Kbps\nMinimum bit rate                 : 128 Kbps\nChannel(s)                       : 2 channels\nSampling rate                    : 48.0 KHz\nResolution                       : 16 bits\nStream size                      : 86.2 MiB (12%)\nAlignment                        : Aligned on interleaves\nInterleave, duration             : 24 ms (0.60 video frame)\nInterleave, preload duration     : 481 ms\nWriting library                  : LAME3.90.\nEncoding settings                : VBR (mtrh)\n\n\nPlease help your fellow pirates by seeding after download!\n","torrent":{"xt":"urn:btih:3ad981ffdda466f2f34ea907c7606720ecbfe110","amp;dn":"Trauma+%5B2004%5D+DVDRip","amp;tr":["udp%3A%2F%2Ftracker.openbittorrent.com%3A80","udp%3A%2F%2Fopen.demonii.com%3A1337","udp%3A%2F%2Ftracker.coppersurfer.tk%3A6969","udp%3A%2F%2Fexodus.desync.com%3A6969"],"infoHash":"3ad981ffdda466f2f34ea907c7606720ecbfe110","infoHashBuffer":{"type":"Buffer","data":[58,217,129,255,221,164,102,242,243,78,169,7,199,96,103,32,236,191,225,16]},"announce":[],"urlList":[]}}